<?xml version="1.0" encoding="utf-8"?>
<!-- Generator: Adobe Illustrator 21.0.2, SVG Export Plug-In . SVG Version: 6.00 Build 0)  -->
<svg version="1.1" id="Layer_1" xmlns="http://www.w3.org/2000/svg" xmlns:xlink="http://www.w3.org/1999/xlink" x="0px" y="0px"
	 viewBox="0 0 1104.1 408" style="enable-background:new 0 0 1104.1 408;" xml:space="preserve">
<style type="text/css">
	.st0{fill:#FFFFFF;}
	.st1{enable-background:new    ;}
</style>
<g>
	<polygon class="st0" points="252.1,281.8 252.1,347.7 104.6,246.7 160.2,216.7 210.8,252.5 	"/>
	<polygon class="st0" points="236.1,105.7 236.1,106.5 236,175.8 104.6,246.7 104.6,175.1 172.2,139.4 172.3,139.4 	"/>
	<polygon class="st0" points="236.1,105.7 172.3,139.4 172.2,139.4 	"/>
	<polygon class="st0" points="236.1,105.7 172.2,139.4 129.9,114.9 81.9,87.6 82,19.7 	"/>
	<polygon class="st0" points="82,19.7 81.9,87.6 81.4,308.6 20.6,341.2 20.6,52.6 	"/>
</g>
<g class="st1">
	<path class="st0" d="M44.7,376.2c0,1.1-0.2,2.2-0.6,3.1c-0.4,0.9-1,1.7-1.7,2.4c-0.7,0.7-1.5,1.2-2.5,1.6c-0.9,0.4-1.9,0.7-3,0.9
		v0.1c0.8,0.2,1.4,0.7,2,1.4c0.5,0.7,0.9,1.6,1.2,2.8l1.8,7.7h-6.4l-1.4-6.9c-0.2-1.1-0.6-1.9-1.2-2.5s-1.3-0.8-2.3-0.8h-1
		l-2.2,10.2h-6l5.6-26.7h9c1.5,0,2.8,0.2,3.9,0.5c1.1,0.4,2,0.9,2.6,1.5c0.7,0.6,1.2,1.3,1.5,2.2C44.5,374.4,44.7,375.3,44.7,376.2z
		 M38.3,377.2c0-1-0.3-1.8-0.9-2.4c-0.6-0.6-1.5-0.9-2.7-0.9h-2.5l-1.6,7.4H33c0.9,0,1.7-0.1,2.4-0.3c0.7-0.2,1.2-0.5,1.6-0.9
		s0.8-0.8,1-1.3C38.2,378.2,38.3,377.7,38.3,377.2z"/>
	<path class="st0" d="M83.6,374.3h-9.2l-1.3,6h8.6l-1.1,4.9H72l-1.3,6h9.9l-1,4.9H63.7l5.6-26.7h15.2L83.6,374.3z"/>
	<path class="st0" d="M114.9,396.1h-6.6l-3.4-26.7h6.1l1.8,18.5c0,0.4,0.1,0.9,0.1,1.3c0,0.5,0,0.9-0.1,1.3h0.1
		c0.1-0.4,0.3-0.8,0.4-1.2c0.2-0.4,0.4-0.9,0.7-1.5l9.2-18.4h6.6L114.9,396.1z"/>
	<path class="st0" d="M160.2,396.1l-0.8-5.9h-9.5l-3.1,5.9h-6.7l15.3-26.7h7.1l3.8,26.7H160.2z M158,376.5c0-0.2,0-0.4,0-0.7
		s0-0.5,0-0.7s0-0.4,0-0.6c0-0.2,0-0.3,0-0.4h-0.1c0,0.1-0.1,0.3-0.1,0.4s-0.1,0.4-0.2,0.6c-0.1,0.2-0.2,0.4-0.3,0.6
		s-0.2,0.4-0.3,0.7l-4.8,9.1h6.8L158,376.5z"/>
	<path class="st0" d="M193.5,396.1h-6l5.6-26.7h6L193.5,396.1z"/>
	<path class="st0" d="M241.7,396.1h-5.4l-8.3-17c-0.1-0.1-0.2-0.3-0.2-0.5c-0.1-0.2-0.2-0.4-0.3-0.6c-0.1-0.2-0.2-0.4-0.2-0.6
		c-0.1-0.2-0.1-0.4-0.2-0.5H227c-0.1,0.5-0.1,1-0.2,1.5c-0.1,0.6-0.2,1.1-0.3,1.7l-3.4,15.9h-5.6l5.6-26.7h5.9l7.9,16.3
		c0.1,0.1,0.1,0.3,0.2,0.5s0.2,0.4,0.3,0.6s0.2,0.4,0.3,0.6s0.1,0.4,0.2,0.5h0.1c0-0.2,0-0.4,0.1-0.6c0-0.2,0.1-0.5,0.1-0.7
		c0-0.2,0.1-0.5,0.1-0.7c0-0.2,0.1-0.4,0.1-0.6l3.4-15.9h5.6L241.7,396.1z"/>
</g>
<g id="Слой_2">
</g>
<g class="st1">
	<path class="st0" d="M424.3,148.8l-6.3,31.6h-19L415.5,98h29.9c8.4,0,14.9,2.2,19.5,6.7c4.6,4.5,6.2,10.5,4.7,18
		c-0.9,4.6-2.7,8.4-5.4,11.4c-2.7,3-6.3,5.4-10.8,7.2c4.2,1.5,7.1,4,8.6,7.4s1.8,7.5,0.9,12.2l-1,5.2c-0.5,2.2-0.7,4.7-0.6,7.4
		s0.7,4.7,2,5.8l-0.2,1.1h-19.5c-1.2-1.2-1.7-3.2-1.5-6.1c0.2-2.9,0.5-5.7,1-8.4l1-5c0.8-4.2,0.6-7.3-0.8-9.2
		c-1.4-1.9-3.8-2.9-7.4-2.9H424.3z M427.3,134.1h11.1c3,0,5.6-0.9,7.8-2.7c2.2-1.8,3.7-4.3,4.3-7.5c0.7-3.6,0.3-6.4-1-8.3
		c-1.4-1.9-3.7-2.9-7.1-2.9h-10.9L427.3,134.1z"/>
	<path class="st0" d="M526.4,145.2h-29.5l-4.1,20.6h34.8l-2.9,14.7h-53.8L487.3,98h53.9l-2.9,14.7h-34.9l-3.6,17.7h29.5L526.4,145.2
		z"/>
	<path class="st0" d="M552.8,180.5h-18.9L550.4,98h18.9L552.8,180.5z"/>
	<path class="st0" d="M630.5,180.5h-18.9l-16.3-50.6l-0.3,0.1l-10.1,50.6h-19L582.3,98h19l16.3,50.6l0.3-0.1L628.1,98H647
		L630.5,180.5z"/>
	<path class="st0" d="M675,158.1l0.1,2.5l0.3,0.1l0.8-2.4L700.3,98h19.8l-37.8,82.5h-20.4L650.7,98h19.7L675,158.1z"/>
	<path class="st0" d="M767.6,145.2h-29.5l-4.1,20.6h34.8l-2.9,14.7h-53.8L728.6,98h53.9l-2.9,14.7h-34.9l-3.6,17.7h29.5L767.6,145.2
		z"/>
	<path class="st0" d="M838.7,180.5h-18.9l-16.3-50.6l-0.3,0.1L793,180.5h-19L790.5,98h19l16.3,50.6l0.3-0.1L836.2,98h18.9
		L838.7,180.5z"/>
	<path class="st0" d="M916.2,112.7h-19.7L883,180.5h-19l13.5-67.7h-19.5L861,98h58.1L916.2,112.7z"/>
	<path class="st0" d="M930,180.5h-18.9L927.6,98h18.9L930,180.5z"/>
	<path class="st0" d="M1007.7,180.5h-18.9l-16.3-50.6l-0.3,0.1L962,180.5h-19L959.5,98h19l16.3,50.6l0.3-0.1l10.1-50.6h18.9
		L1007.7,180.5z"/>
	<path class="st0" d="M1083,169.1c-3.4,3.4-7.8,6.3-13.2,8.8c-5.5,2.5-12,3.8-19.5,3.8c-8.9,0-15.9-3.2-20.9-9.5
		c-5-6.4-6.5-14.5-4.6-24.3l3.5-17.2c2.1-10.6,6.6-18.9,13.6-24.9c6.9-6,15-8.9,24.3-8.9c9.3,0,16.1,2.5,20.4,7.5
		c4.3,5,5.9,11.7,4.9,20l-0.1,0.3h-17.8c0.3-4.3-0.3-7.6-1.8-9.8c-1.4-2.2-4.1-3.3-8-3.3c-3.6,0-7,1.8-10.2,5.4
		c-3.2,3.6-5.4,8.1-6.5,13.6l-3.5,17.3c-1.2,6.1-1,10.8,0.6,14.1c1.6,3.3,4.6,5,8.9,5c2.8,0,5.2-0.3,7.1-0.8s3.5-1.3,4.8-2.3l2.6-13
		h-11.2l2.5-12.7h30.2L1083,169.1z"/>
</g>
<g class="st1">
	<path class="st0" d="M424.3,272.8l-6.3,31.6h-19l16.5-82.5h29.9c8.4,0,14.9,2.2,19.5,6.7c4.6,4.5,6.2,10.5,4.7,18
		c-0.9,4.6-2.7,8.4-5.4,11.4c-2.7,3-6.3,5.4-10.8,7.2c4.2,1.5,7.1,4,8.6,7.4s1.8,7.5,0.9,12.2l-1,5.2c-0.5,2.2-0.7,4.7-0.6,7.4
		s0.7,4.7,2,5.8l-0.2,1.1h-19.5c-1.2-1.2-1.7-3.2-1.5-6.1c0.2-2.9,0.5-5.7,1-8.4l1-5c0.8-4.2,0.6-7.3-0.8-9.2
		c-1.4-1.9-3.8-2.9-7.4-2.9H424.3z M427.3,258.1h11.1c3,0,5.6-0.9,7.8-2.7c2.2-1.8,3.7-4.3,4.3-7.5c0.7-3.6,0.3-6.4-1-8.3
		c-1.4-1.9-3.7-2.9-7.1-2.9h-10.9L427.3,258.1z"/>
	<path class="st0" d="M526.4,269.2h-29.5l-4.1,20.6h34.8l-2.9,14.7h-53.8l16.5-82.5h53.9l-2.9,14.7h-34.9l-3.6,17.7h29.5
		L526.4,269.2z"/>
	<path class="st0" d="M565.3,282.1l0.1,2.5l0.3,0.1l0.8-2.4l24.1-60.3h19.8l-37.8,82.5h-20.4L541,222h19.7L565.3,282.1z"/>
	<path class="st0" d="M622.4,304.5h-18.9L620,222h18.9L622.4,304.5z"/>
	<path class="st0" d="M691,269.2h-29.5l-4.1,20.6h34.8l-2.9,14.7h-53.8l16.5-82.5h53.9l-2.9,14.7H668l-3.6,17.7h29.5L691,269.2z"/>
	<path class="st0" d="M764.8,273.4h0.3l17.7-51.4h18.2l-30.5,82.5h-17.8l-4.5-48.3h-0.3l-19.8,48.3h-17.8l-4.2-82.5h18.4l1.2,51.3
		l0.3,0.1l21-51.3h13.1L764.8,273.4z"/>
	<path class="st0" d="M838.3,283.9c0.6-3.4,0.2-5.9-1.4-7.5c-1.6-1.6-4.8-3.4-9.6-5.6c-9-3.2-15.7-7-20-11.4
		c-4.3-4.4-5.8-10-4.4-16.7c1.4-6.9,5-12.3,11-16.1c5.9-3.8,13-5.7,21.2-5.7c8.6,0,15.3,2.3,20.1,6.8c4.9,4.5,6.4,10.7,4.7,18.5
		l-0.2,0.3h-18.4c0.6-3.3,0.1-6-1.6-7.9c-1.7-2-4.3-2.9-7.6-2.9c-2.3,0-4.5,0.7-6.6,2.1c-2,1.4-3.2,3-3.6,5
		c-0.6,3.1-0.1,5.4,1.8,6.9c1.8,1.5,5.9,3.4,12.1,5.9c8.2,2.9,14.1,6.6,17.9,11c3.8,4.4,4.9,10.2,3.5,17.4
		c-1.5,7.3-5.1,12.7-10.9,16.4c-5.8,3.7-12.9,5.5-21.2,5.5c-8.3,0-15.4-2.1-21.2-6.2c-5.8-4.1-7.7-10.5-5.8-19.1l0.1-0.3h18.4
		c-0.9,4.2-0.1,7,2.3,8.6c2.4,1.5,5.4,2.3,9.1,2.3c2.3,0,4.4-0.7,6.5-2C836.7,287.6,837.9,285.9,838.3,283.9z"/>
</g>
<rect x="326.4" y="97" class="st0" width="8.7" height="209"/>
</svg>
