<?xml version="1.0" encoding="utf-8"?>
<!-- Generator: Adobe Illustrator 21.0.2, SVG Export Plug-In . SVG Version: 6.00 Build 0)  -->
<svg version="1.1" id="Layer_1" xmlns="http://www.w3.org/2000/svg" xmlns:xlink="http://www.w3.org/1999/xlink" x="0px" y="0px"
	 viewBox="0 0 799.8 408" style="enable-background:new 0 0 799.8 408;" xml:space="preserve">
<style type="text/css">
	.st0{fill:url(#SVGID_1_);}
	.st1{fill:url(#SVGID_2_);}
	.st2{fill:url(#SVGID_3_);}
	.st3{fill:url(#SVGID_4_);}
	.st4{fill:url(#SVGID_5_);}
	.st5{enable-background:new    ;}
	.st6{fill:#38002D;}
</style>
<g>
	
		<linearGradient id="SVGID_1_" gradientUnits="userSpaceOnUse" x1="232.9295" y1="-2.408" x2="152.298" y2="137.2498" gradientTransform="matrix(1 0 0 -1 0 356.3972)">
		<stop  offset="0" style="stop-color:#D60064"/>
		<stop  offset="0.8553" style="stop-color:#280213"/>
		<stop  offset="1" style="stop-color:#000000"/>
	</linearGradient>
	<polygon class="st0" points="252.1,281.8 252.1,347.7 104.6,246.7 160.2,216.7 210.8,252.5 	"/>
	
		<linearGradient id="SVGID_2_" gradientUnits="userSpaceOnUse" x1="104.5642" y1="180.1805" x2="236.1065" y2="180.1805" gradientTransform="matrix(1 0 0 -1 0 356.3972)">
		<stop  offset="0" style="stop-color:#D60064"/>
		<stop  offset="1" style="stop-color:#690037"/>
	</linearGradient>
	<polygon class="st1" points="236.1,105.7 236.1,106.5 236,175.8 104.6,246.7 104.6,175.1 172.2,139.4 172.3,139.4 	"/>
	
		<linearGradient id="SVGID_3_" gradientUnits="userSpaceOnUse" x1="172.242" y1="233.8181" x2="236.1065" y2="233.8181" gradientTransform="matrix(1 0 0 -1 0 356.3972)">
		<stop  offset="0" style="stop-color:#A20063"/>
		<stop  offset="1" style="stop-color:#4B003A"/>
	</linearGradient>
	<polygon class="st2" points="236.1,105.7 172.3,139.4 172.2,139.4 	"/>
	
		<linearGradient id="SVGID_4_" gradientUnits="userSpaceOnUse" x1="81.8765" y1="276.8438" x2="236.1065" y2="276.8438" gradientTransform="matrix(1 0 0 -1 0 356.3972)">
		<stop  offset="0" style="stop-color:#290015"/>
		<stop  offset="0.5102" style="stop-color:#820040"/>
		<stop  offset="1" style="stop-color:#000000"/>
	</linearGradient>
	<polygon class="st3" points="236.1,105.7 172.2,139.4 129.9,114.9 81.9,87.6 82,19.7 	"/>
	
		<linearGradient id="SVGID_5_" gradientUnits="userSpaceOnUse" x1="114.3361" y1="66.7818" x2="-11.743" y2="285.1573" gradientTransform="matrix(1 0 0 -1 0 356.3972)">
		<stop  offset="0" style="stop-color:#D60064"/>
		<stop  offset="1" style="stop-color:#690037"/>
	</linearGradient>
	<polygon class="st4" points="82,19.7 81.9,87.6 81.4,308.6 20.6,341.2 20.6,52.6 	"/>
</g>
<g class="st5">
	<path class="st6" d="M44.7,376.2c0,1.1-0.2,2.2-0.6,3.1c-0.4,0.9-1,1.7-1.7,2.4c-0.7,0.7-1.5,1.2-2.5,1.6c-0.9,0.4-1.9,0.7-3,0.9
		v0.1c0.8,0.2,1.4,0.7,2,1.4c0.5,0.7,0.9,1.6,1.2,2.8l1.8,7.7h-6.4l-1.4-6.9c-0.2-1.1-0.6-1.9-1.2-2.5s-1.3-0.8-2.3-0.8h-1
		l-2.2,10.2h-6l5.6-26.7h9c1.5,0,2.8,0.2,3.9,0.5c1.1,0.4,2,0.9,2.6,1.5c0.7,0.6,1.2,1.3,1.5,2.2C44.5,374.4,44.7,375.3,44.7,376.2z
		 M38.3,377.2c0-1-0.3-1.8-0.9-2.4c-0.6-0.6-1.5-0.9-2.7-0.9h-2.5l-1.6,7.4H33c0.9,0,1.7-0.1,2.4-0.3c0.7-0.2,1.2-0.5,1.6-0.9
		s0.8-0.8,1-1.3C38.2,378.2,38.3,377.7,38.3,377.2z"/>
	<path class="st6" d="M84.4,374.3h-9.2l-1.3,6h8.6l-1.1,4.9h-8.6l-1.3,6h9.9l-1,4.9H64.5l5.6-26.7h15.2L84.4,374.3z"/>
	<path class="st6" d="M116.5,396.1h-6.6l-3.4-26.7h6.1l1.8,18.5c0,0.4,0.1,0.9,0.1,1.3c0,0.5,0,0.9-0.1,1.3h0.1
		c0.1-0.4,0.3-0.8,0.4-1.2c0.2-0.4,0.4-0.9,0.7-1.5l9.2-18.4h6.6L116.5,396.1z"/>
	<path class="st6" d="M162.6,396.1l-0.8-5.9h-9.5l-3.1,5.9h-6.7l15.3-26.7h7.1l3.8,26.7H162.6z M160.4,376.5c0-0.2,0-0.4,0-0.7
		s0-0.5,0-0.7s0-0.4,0-0.6c0-0.2,0-0.3,0-0.4h-0.1c0,0.1-0.1,0.3-0.1,0.4s-0.1,0.4-0.2,0.6c-0.1,0.2-0.2,0.4-0.3,0.6
		s-0.2,0.4-0.3,0.7l-4.8,9.1h6.8L160.4,376.5z"/>
	<path class="st6" d="M196.7,396.1h-6l5.6-26.7h6L196.7,396.1z"/>
	<path class="st6" d="M245.7,396.1h-5.4l-8.3-17c-0.1-0.1-0.2-0.3-0.2-0.5c-0.1-0.2-0.2-0.4-0.3-0.6c-0.1-0.2-0.2-0.4-0.2-0.6
		c-0.1-0.2-0.1-0.4-0.2-0.5H231c-0.1,0.5-0.1,1-0.2,1.5c-0.1,0.6-0.2,1.1-0.3,1.7l-3.4,15.9h-5.6l5.6-26.7h5.9l7.9,16.3
		c0.1,0.1,0.1,0.3,0.2,0.5s0.2,0.4,0.3,0.6s0.2,0.4,0.3,0.6s0.1,0.4,0.2,0.5h0.1c0-0.2,0-0.4,0.1-0.6c0-0.2,0.1-0.5,0.1-0.7
		c0-0.2,0.1-0.5,0.1-0.7c0-0.2,0.1-0.4,0.1-0.6l3.4-15.9h5.6L245.7,396.1z"/>
</g>
<g id="Слой_2">
</g>
<g>
	<path d="M424.3,148.8l-6.3,31.6h-19L415.5,98h29.9c8.4,0,14.9,2.2,19.5,6.7c4.6,4.5,6.2,10.5,4.7,18c-0.9,4.6-2.7,8.4-5.4,11.4
		c-2.7,3-6.3,5.4-10.8,7.2c4.2,1.5,7.1,4,8.6,7.4s1.8,7.5,0.9,12.2l-1,5.2c-0.5,2.2-0.7,4.7-0.6,7.4s0.7,4.7,2,5.8l-0.2,1.1h-19.5
		c-1.2-1.2-1.7-3.2-1.5-6.1c0.2-2.9,0.5-5.7,1-8.4l1-5c0.8-4.2,0.6-7.3-0.8-9.2c-1.4-1.9-3.8-2.9-7.4-2.9H424.3z M427.3,134.1h11.1
		c3,0,5.6-0.9,7.8-2.7c2.2-1.8,3.7-4.3,4.3-7.5c0.7-3.6,0.3-6.4-1-8.3c-1.4-1.9-3.7-2.9-7.1-2.9h-10.9L427.3,134.1z"/>
	<path d="M526.4,145.2h-29.5l-4.1,20.6h34.8l-2.9,14.7h-53.8L487.3,98h53.9l-2.9,14.7h-34.9l-3.6,17.7h29.5L526.4,145.2z"/>
	<path d="M565.3,158.1l0.1,2.5l0.3,0.1l0.8-2.4L590.6,98h19.8l-37.8,82.5h-20.4L541,98h19.7L565.3,158.1z"/>
	<path d="M641.9,164.4h-22.8l-7.4,16h-19l41-82.5H654l8,82.5h-19L641.9,164.4z M625.9,149.7h15l-1.8-27.6l-0.3-0.1L625.9,149.7z"/>
	<path d="M687.4,180.5h-18.9L685.1,98h18.9L687.4,180.5z"/>
	<path d="M765.2,180.5h-18.9L730,129.8l-0.3,0.1l-10.1,50.6h-19L717,98h19l16.3,50.6l0.3-0.1L762.8,98h18.9L765.2,180.5z"/>
	<path d="M399,304.5l16.5-82.5h26.8c9.1,0,16.1,1.9,21,5.8c4.9,3.9,6.7,9.5,5.2,16.9c-0.9,4.2-2.4,7.7-4.7,10.7
		c-2.3,3-5.4,5.2-9.3,6.7c4.3,1.1,7.1,3.3,8.6,6.6c1.5,3.3,1.7,7.1,0.9,11.4c-1.7,8.5-5.5,14.7-11.2,18.6
		c-5.7,3.9-13.5,5.8-23.2,5.8H399z M425.1,269.1l-4.1,20.7h11.6c3.4,0,6.1-0.8,8.3-2.5c2.2-1.6,3.6-4.1,4.3-7.3
		c0.7-3.8,0.5-6.6-0.6-8.3c-1.1-1.7-3.4-2.6-6.9-2.6H425.1z M427.6,256.4h8.1c3.6-0.1,6.6-0.9,8.9-2.6c2.3-1.6,3.9-4,4.5-7
		c0.7-3.7,0.3-6.4-1.3-7.8c-1.6-1.5-4.4-2.2-8.5-2.2h-7.8L427.6,256.4z"/>
	<path d="M491.1,289.7h32.6l-2.9,14.7h-51.5l16.5-82.5h19L491.1,289.7z"/>
	<path d="M597.8,270.6c-2.2,10.9-6.7,19.5-13.4,25.7c-6.7,6.2-15,9.3-24.8,9.3c-9.2,0-16.6-3.4-22.1-10.1s-7.3-15-5.4-24.9l3-14.8
		c2.2-11,6.6-19.5,13.1-25.7c6.6-6.2,14.7-9.3,24.5-9.3c9.2,0,16.7,3.4,22.4,10.2c5.7,6.8,7.6,15.1,5.7,24.8L597.8,270.6z
		 M582,255.7c1.2-6,0.7-10.9-1.7-14.6c-2.3-3.7-5.8-5.6-10.4-5.6c-4.1,0-7.5,1.8-10.1,5.5c-2.6,3.7-4.5,8.6-5.7,14.7l-3,15
		c-1.2,6.2-0.8,11.1,1.3,14.8c2.1,3.7,5.6,5.5,10.3,5.5c4,0,7.5-1.9,10.3-5.6s4.9-8.6,6.1-14.7L582,255.7z"/>
	<path d="M664.8,293.1c-3.4,3.4-7.8,6.3-13.2,8.8c-5.5,2.5-12,3.8-19.5,3.8c-8.9,0-15.9-3.2-20.9-9.5c-5-6.4-6.5-14.5-4.6-24.3
		l3.5-17.2c2.1-10.6,6.6-18.9,13.6-24.9c6.9-6,15-8.9,24.3-8.9c9.3,0,16.1,2.5,20.4,7.5c4.3,5,5.9,11.7,4.9,20l-0.1,0.3h-17.8
		c0.3-4.3-0.3-7.6-1.8-9.8c-1.4-2.2-4.1-3.3-8-3.3c-3.6,0-7,1.8-10.2,5.4c-3.2,3.6-5.4,8.1-6.5,13.6l-3.5,17.3
		c-1.2,6.1-1,10.8,0.6,14.1c1.6,3.3,4.6,5,8.9,5c2.8,0,5.2-0.3,7.1-0.8s3.5-1.3,4.8-2.3l2.6-13h-11.2l2.5-12.7H671L664.8,293.1z"/>
</g>
<rect x="326.4" y="97" width="8.7" height="209"/>
</svg>
